<?xml version="1.0" encoding="UTF-8"?>
<svg xmlns="http://www.w3.org/2000/svg" viewBox="0 0 4720 1000">
  <g fill="#FFFFFF" transform="translate(60, 940) scale(1, -1)">
    <path transform="translate(0, 0)" d="M490 404V432H625V332H475L397 372V332H322L331 303H397V-79H407C439 -79 459 -61 459 -56V303H625V120C569 112 522 106 493 104L529 33C538 35 546 42 550 55C648 81 722 105 777 124C786 99 792 75 794 54C841 8 891 119 739 239L725 234C740 209 757 175 771 141L686 129V303H865V22C865 9 861 3 845 3C827 3 748 9 748 9V-7C784 -12 805 -20 818 -28C829 -38 833 -55 835 -74C917 -65 927 -34 927 15V291C947 294 964 303 970 310L888 372L855 332H686V432H826V398H836C856 398 886 411 887 418V588C905 592 921 599 928 607L851 665L817 628H686V733C757 743 821 755 873 767C895 758 913 759 922 767L849 832C751 792 561 745 402 727L405 709C477 711 553 717 625 725V628H495L430 658V385H439C464 385 490 399 490 404ZM686 462V598H826V462ZM625 462H490V598H625ZM301 795 257 739H40L48 709H168V457H52L60 427H168V145C110 124 62 107 34 99L82 22C91 26 98 36 100 47C214 111 299 164 359 201L352 214L230 168V427H333C346 427 356 432 358 443C331 472 287 512 287 512L247 457H230V709H356C370 709 380 714 382 725C351 755 301 795 301 795Z"/>
    <path transform="translate(1200, 0)" d="M748 703 663 745C640 706 599 635 569 591L579 582C620 615 680 663 712 693C735 689 744 694 748 703ZM764 312 754 304C800 269 859 208 879 161C946 124 981 259 764 312ZM280 738 268 730C306 696 355 638 369 594C425 555 467 664 280 738ZM558 311 547 304C576 274 611 220 619 179C676 137 727 250 558 311ZM321 308 309 303C329 270 353 218 357 178C407 133 467 231 321 308ZM201 307 183 309C171 264 125 219 91 203C71 191 59 171 67 153C78 132 112 135 134 148C168 170 207 227 201 307ZM245 513V542H469V459H149L157 429H469V352H60L69 322H915C929 322 939 327 942 338C910 367 861 405 861 405L818 352H530V429H840C854 429 864 434 865 445C835 474 786 512 786 512L742 459H530V542H753V508H763C784 508 815 523 816 530V762C827 764 836 769 839 773L778 822L748 792H251L183 823V492H193C219 492 245 507 245 513ZM470 762V572H245V762ZM528 762H753V572H528ZM568 221 467 231V132H140L148 102H467V-10H38L47 -40H934C948 -40 956 -35 959 -24C925 8 869 51 869 51L820 -10H532V102H841C854 102 864 107 867 118C834 150 779 192 779 192L732 132H532V195C556 198 566 207 568 221Z"/>
    <path transform="translate(2400, 0)" d="M100 413C89 413 54 413 54 413V390C72 389 86 385 99 379C120 369 125 322 115 242C118 218 128 204 143 204C174 204 190 225 191 257C194 313 171 345 171 377C171 396 180 421 191 445C206 477 300 644 340 721L322 728C145 456 145 456 126 430C115 413 112 413 100 413ZM46 680 37 671C77 649 123 603 137 564C203 529 236 663 46 680ZM130 831 120 822C164 797 218 749 236 708C303 674 334 809 130 831ZM515 389 437 432C400 379 320 310 246 270L257 256C343 284 431 336 479 381C500 376 508 380 515 389ZM679 420 670 409C734 375 819 309 848 255C921 223 940 371 679 420ZM712 660 676 615H415C495 665 565 726 610 790C674 688 790 602 915 546C921 568 936 587 961 595L963 608C830 647 703 719 625 801C649 803 658 807 661 818L556 840C507 738 380 618 255 555L263 538C314 558 365 584 412 613L420 586H562V495H320L328 466H562V253H572C605 253 625 267 625 271V466H865C879 466 889 471 891 482C861 510 815 546 815 546L773 495H625V586H755C768 586 777 591 780 602C754 627 712 660 712 660ZM568 249 467 260V147H154L162 118H467V-8H43L52 -37H925C940 -37 949 -32 952 -21C917 11 861 54 861 54L812 -8H532V118H826C840 118 849 123 852 134C818 165 764 207 764 207L716 147H532V223C556 227 566 236 568 249Z"/>
    <path transform="translate(3600, 0)" d="M489 503 479 494C532 460 595 396 613 343C686 298 729 451 489 503ZM527 747 518 738C566 703 624 641 641 589C713 546 757 693 527 747ZM491 740 399 774C375 691 344 594 320 533L337 525C376 578 420 656 454 723C475 722 487 730 491 740ZM322 392 309 386C342 329 381 240 385 173C449 114 510 259 322 392ZM79 762 64 757C94 696 131 604 136 536C195 479 254 615 79 762ZM856 820 758 831V256L469 205L482 178L758 227V-79H770C794 -79 820 -63 820 -53V239L945 261C957 262 966 270 966 281C937 308 890 347 890 347L851 273L820 267V792C846 796 853 806 856 820ZM401 534 357 479H296V799C321 803 329 813 332 827L232 838V479H42L50 449H232V377L141 404C119 288 79 167 37 89L51 81C113 148 166 249 202 355C218 355 228 360 232 368V-79H245C270 -79 296 -64 296 -55V449H455C469 449 479 454 482 465C450 494 401 534 401 534Z"/>
  </g>
</svg>