<?xml version="1.0" encoding="UTF-8"?>
<svg xmlns="http://www.w3.org/2000/svg" viewBox="0 0 1593 785">
  <g fill="#FFFFFF" transform="translate(80, 705) scale(1, -1)">
    <path d="M571 497Q571 550 546.5 581.5Q522 613 478 613Q476 613 476.0 619.0Q476 625 478 625Q503 625 529.5 623.5Q556 622 587 622Q614 622 640.0 623.5Q666 625 688 625Q690 625 690.0 619.0Q690 613 688 613Q648 613 626.5 581.5Q605 550 605 497V219Q605 148 574.0 95.5Q543 43 487.0 14.5Q431 -14 356 -14Q283 -14 225.5 14.0Q168 42 135.5 94.5Q103 147 103 221V544Q103 573 98.0 587.5Q93 602 77.5 607.5Q62 613 32 613Q29 613 29.0 619.0Q29 625 32 625Q58 625 90.0 623.5Q122 622 158 622Q196 622 228.0 623.5Q260 625 285 625Q288 625 288.0 619.0Q288 613 285 613Q255 613 240.0 607.0Q225 601 219.5 586.0Q214 571 214 542V256Q214 133 263.0 78.0Q312 23 394 23Q477 23 524.0 73.5Q571 124 571 218Z"/>
    <path transform="translate(576, 0)" d="M117 127 126 541 125 542Q87 613 34 613Q31 613 31.0 619.0Q31 625 34 625Q55 625 78.0 624.0Q101 623 117 623Q143 623 162.5 624.0Q182 625 193 625Q207 625 214.5 615.0Q222 605 239 573L457 164L647 600Q653 614 659.5 619.5Q666 625 677 625Q687 625 698.0 624.0Q709 623 724 623Q756 623 778.5 624.0Q801 625 823 625Q826 625 826.0 619.0Q826 613 823 613Q777 613 755.5 594.0Q734 575 736 535L760 81Q762 52 767.5 37.0Q773 22 788.0 17.0Q803 12 833 12Q835 12 835.0 6.0Q835 0 833 0Q807 0 774.0 1.0Q741 2 705 2Q668 2 636.0 1.0Q604 0 578 0Q575 0 575.0 6.0Q575 12 578 12Q625 12 638.5 25.0Q652 38 649 81L628 490L422 7Q421 3 414.5 3.0Q408 3 406 7L153 488L145 127Q144 74 166.5 43.0Q189 12 230 12Q233 12 233.0 6.0Q233 0 230 0Q208 0 185.0 1.0Q162 2 133 2Q101 2 75.0 1.0Q49 0 27 0Q24 0 24.0 6.0Q24 12 27 12Q68 12 92.0 43.0Q116 74 117 127Z"/>
  </g>
</svg>